<?xml version="1.0" encoding="utf-8"?>
<!-- Generator: Adobe Illustrator 19.0.0, SVG Export Plug-In . SVG Version: 6.00 Build 0)  -->
<svg version="1.1" id="Layer_1" xmlns="http://www.w3.org/2000/svg" xmlns:xlink="http://www.w3.org/1999/xlink" x="0px" y="0px"
	 viewBox="0 0 900 500" style="enable-background:new 0 0 900 500;" xml:space="preserve">
<style type="text/css">
	.st0{fill:#F1F2F2;}
</style>
<g id="XMLID_6_">
	<path id="XMLID_23_" class="st0" d="M217.8,320.8h-9l11.4-103l-35.4,103h-6.8l-13.2-101.3l-11.2,101.3H146l12.4-112.2H172
		l12.1,91.8l31.5-91.8h14.6L217.8,320.8z"/>
	<path id="XMLID_25_" class="st0" d="M273.3,320.8h-6.1l1-10.8c-5.5,8.4-11.7,12.6-18.7,12.6c-6.3,0-11.6-3.1-15.7-9.4
		c-4.1-6.2-6.1-14.3-6.1-24.2c0-11.4,2.7-21.2,8-29.4c5.3-8.1,11.6-12.3,18.9-12.3c3.9,0,7.4,1.2,10.3,3.7s5.5,6.3,7.5,11.6
		l1.1-13.6h6.3L273.3,320.8z M250.1,314.2c3.9,0,7.4-1.4,10.6-4.2c3.2-2.8,5.7-6.8,7.6-12.1c1.8-5.2,2.8-10.9,2.8-17
		c0-7.4-1.5-13.4-4.6-18.1c-3.1-4.7-7.1-7-12-7c-5.8,0-10.7,3.2-14.8,9.6c-4.1,6.3-6.1,14.1-6.1,23.4c0,7.6,1.5,13.7,4.6,18.4
		S245.2,314.2,250.1,314.2z"/>
	<path id="XMLID_28_" class="st0" d="M285.9,249.2h6l-0.8,9c1.6-3.4,3.5-6.1,5.8-8c2.3-1.9,4.6-2.9,7-2.9c1.7,0,3.5,0.6,5.3,1.9
		l-2.9,8.4c-1.5-0.9-2.7-1.4-3.8-1.4c-2.1,0-4.2,1.1-6.3,3.3c-2.1,2.3-3.8,5.5-5,9.8c-1.3,4.3-2.4,11.3-3.2,21.1l-2.7,30.3h-5.9
		L285.9,249.2z"/>
	<path id="XMLID_30_" class="st0" d="M312,221.6h5.9l-4.7,54.3l22.8-26.7h9.4l-27.3,32l24.1,39.6h-8.1l-21.8-35.7l-3,35.7h-6
		L312,221.6z"/>
	<path id="XMLID_32_" class="st0" d="M391,286.8h-41.9c-0.1,8.5,1.4,15.2,4.4,20.1c3,4.9,7,7.3,12,7.3c3.3,0,6.4-1,9.2-3.1
		c2.8-2.1,5.2-5,7-8.7l4.5,5.6c-2.3,4.5-5.2,8-8.9,10.6c-3.7,2.6-7.7,3.9-11.9,3.9c-7.4,0-12.9-3.4-16.6-10.4
		c-3.7-7-5.5-14.8-5.5-23.5c0-7.1,1.3-13.9,3.8-20.5c2.5-6.5,5.8-11.7,10-15.4c4.2-3.6,8.7-5.5,13.6-5.5c6,0,11,3.1,15,9.4
		c4,6.2,5.9,14.1,5.9,23.7C391.3,282.2,391.2,284.3,391,286.8z M385.5,278.8c-0.1-6.8-1.7-12.2-4.6-16.3c-2.9-4.2-6.4-6.2-10.8-6.2
		c-4.7,0-8.9,2-12.4,6c-3.5,4.1-6.1,9.6-7.6,16.6h35.3V278.8z"/>
	<path id="XMLID_35_" class="st0" d="M408.4,222.5h5.9l-2.4,26.8h9.4l-0.7,8h-9.5l-5.5,63.5h-6l5.7-63.5h-8l0.7-8h8L408.4,222.5z"/>
	<path id="XMLID_37_" class="st0" d="M424.5,249.2h5.7l-6.1,71.5h-5.9L424.5,249.2z M429.2,219.8c1.3,0,2.4,0.7,3.4,2.2
		c1,1.5,1.4,3.2,1.4,5.2c0,2.1-0.4,3.8-1.4,5.2c-1,1.5-2.1,2.2-3.4,2.2s-2.5-0.7-3.5-2.2c-1-1.5-1.4-3.1-1.4-5.2
		c0-2,0.4-3.7,1.4-5.2C426.7,220.5,427.9,219.8,429.2,219.8z"/>
	<path id="XMLID_40_" class="st0" d="M438.1,249.2h5.8l-1,11.1c4.8-8.6,10.3-13,16.7-13c4.9,0,8.8,2.3,11.8,6.8
		c3,4.5,4.5,10.6,4.5,18.3c0,3.1-0.3,8.2-1,15.5l-3,32.8h-5.9l3-32.8c0.6-7.1,1-12.2,1-15.6c0-5-1-9-3-12.2c-2-3.1-4.6-4.6-7.9-4.6
		c-3.2,0-6.1,1.2-8.9,3.7c-2.7,2.5-4.9,5.9-6.3,10.2c-1.5,4.3-2.7,11-3.5,20.3l-2.7,31h-5.9L438.1,249.2z"/>
	<path id="XMLID_42_" class="st0" d="M526.7,249.2h5.9l-5.4,60.6c-0.9,9.8-1.9,16.6-3.2,20.5c-1.7,5.4-4.5,9.8-8.5,13.3
		c-3.9,3.4-8.6,5.2-14,5.2c-5.3,0-9.8-1.7-13.6-4.9c-3.8-3.2-6.6-8-8.5-14.2l5.4-2.9c3.3,9,8.9,13.6,16.6,13.6
		c4.1,0,7.7-1.2,10.7-3.8c3-2.5,5.2-5.8,6.5-9.8c0.8-2.4,1.5-7.7,2.4-15.7l0.2-2.8c-5.1,8.4-11.3,12.7-18.6,12.7
		c-6.5,0-11.7-3-15.6-9c-4-6-5.9-13.8-5.9-23.5c0-7.1,1.2-13.8,3.6-20.1c2.4-6.2,5.7-11.3,10-15.1c4.2-3.8,8.5-5.7,12.8-5.7
		c3.6,0,6.9,1.2,10,3.7c3,2.5,5.7,6.3,8,11.7L526.7,249.2z M508.8,256.2c-3.9,0-7.6,1.5-11,4.3c-3.4,2.9-6,6.8-7.8,11.6
		c-1.8,4.9-2.8,10.4-2.8,16.5c0,7.1,1.5,12.7,4.4,16.9c3,4.3,6.9,6.4,11.8,6.4c6,0,10.9-3,14.9-8.9c4-5.9,5.9-13.5,5.9-22.5
		c0-8-1.6-14-4.8-18.2C516.2,258.3,512.6,256.2,508.8,256.2z"/>
	<path id="XMLID_45_" class="st0" d="M592.7,231.4h14.5l-8.2,89.5h-14.3l0.9-9.6c-3.2,4.5-6,7.5-8.8,9.2c-2.7,1.8-5.8,2.6-9.1,2.6
		c-7.8,0-14-4.4-18.6-13.1c-4.6-8.7-6.9-18.8-6.9-30.4c0-8.8,1.5-17.2,4.4-25.1c3-8,6.9-14.2,11.9-18.7c5-4.5,10.2-6.6,15.6-6.6
		c3.6,0,7,1.2,10,3.8c3.1,2.5,5.6,6.2,7.6,11.1L592.7,231.4z M571.1,303.6c3.5,0,6.6-1.2,9.3-3.6s4.9-6.1,6.6-11.3
		c1.8-5.1,2.7-10.4,2.7-15.8c0-7.1-1.3-12.8-4.1-17.1c-2.7-4.3-6.3-6.4-10.7-6.4c-5.2,0-9.5,2.9-13.1,8.6s-5.4,13.2-5.4,22.2
		c0,7.1,1.3,12.7,4.1,16.9C563.3,301.4,566.8,303.6,571.1,303.6z"/>
	<path id="XMLID_48_" class="st0" d="M662.3,196.9h14.5l-11.3,124h-14.3l0.9-9.6c-3.2,4.5-6,7.5-8.8,9.2c-2.7,1.8-5.8,2.6-9.1,2.6
		c-7.8,0-14-4.4-18.6-13.1c-4.6-8.7-6.9-18.8-6.9-30.4c0-8.8,1.5-17.2,4.4-25.1c3-8,6.9-14.2,11.9-18.7c5-4.5,10.2-6.6,15.6-6.6
		c3.6,0,7,1.2,10,3.8c3.1,2.5,5.6,6.2,7.6,11.1L662.3,196.9z M637.5,303.6c3.5,0,6.6-1.2,9.3-3.6c2.7-2.4,4.9-6.2,6.6-11.3
		c1.8-5.2,2.7-10.4,2.7-15.8c0-7.1-1.3-12.8-4.1-17c-2.7-4.3-6.3-6.4-10.7-6.4c-5.2,0-9.5,2.9-13.1,8.6s-5.4,13.2-5.4,22.2
		c0,7.1,1.3,12.7,4.1,16.9C629.7,301.4,633.2,303.6,637.5,303.6z"/>
	<path id="XMLID_51_" class="st0" d="M728.7,196.9h14.5l-11.3,124h-14.3l0.9-9.6c-3.2,4.5-6,7.5-8.8,9.2c-2.7,1.8-5.8,2.6-9.1,2.6
		c-7.8,0-14-4.4-18.6-13.1c-4.6-8.7-6.9-18.8-6.9-30.4c0-8.8,1.5-17.2,4.4-25.1c3-8,6.9-14.2,11.9-18.7s10.2-6.6,15.6-6.6
		c3.6,0,7,1.2,10,3.8c3.1,2.5,5.6,6.2,7.6,11.1L728.7,196.9z M703.9,303.6c3.5,0,6.6-1.2,9.3-3.6c2.7-2.4,4.9-6.2,6.6-11.3
		c1.8-5.2,2.7-10.4,2.7-15.8c0-7.1-1.3-12.8-4.1-17s-6.3-6.4-10.7-6.4c-5.2,0-9.5,2.9-13.1,8.6s-5.4,13.2-5.4,22.2
		c0,7.1,1.3,12.7,4.1,16.9S699.6,303.6,703.9,303.6z"/>
	<path id="XMLID_54_" class="st0" d="M801,255c-1-0.2-1.6-0.1-2.2,0.3c-0.1,0-0.1,0.1-0.1,0.1c-0.5,0.5-0.9,1.5-1,2.7
		c-0.1,0.7-0.1,1.5,0.1,2.1c0.1,0.5,0.3,0.9,0.5,1.2c0,0.2-0.1,0.4-0.1,0.6c-0.7,0.5-1.2,1.5-1.3,3c-0.1,0.7-0.1,1.5,0.1,2.1
		c0.1,0.5,0.4,1,0.7,1.5c0,0.1,0,0.2,0,0.3l-1,0.2l-0.3,2.3l1,0.2c-0.1,1.2-0.2,2.5-0.4,3.7c-0.4,0.3-0.7,0.6-0.9,1.1
		c-0.4,0.7-0.7,1.7-0.8,2.7c-0.2,1.8,0,3.1,0.6,4.3c0.1,0.2,0.2,0.3,0.3,0.5c-0.1,1-0.1,2-0.3,3l-1-0.7c-0.4,0.9-0.8,2.1-1,3.3
		c-0.2,1.8,0,3.2,0.6,4.4c0.1,0.3,0.4,0.5,0.6,0.8c-0.7,8.1-1.4,16.5-2.1,24.8l4,0.6l-13.1-0.4l-0.1,1h14.3v-0.4v-0.1l1.4-15.3
		l0.2-2.4l0.7-7l0.7-7.6l0.2-2.9l0.8-9l0.3-3.2l0.3-3.1l0.4-3.9l0.3-3.1l0.4-3.9l0.3-3.1L801,255z M792,231.4v0.1l-0.1,1l8.9,0.3
		l5.5,0.2l0.1-0.9V232l0.1-0.6H792z"/>
</g>
<g id="XMLID_3_">
	<path id="XMLID_58_" class="st0" d="M806.3,233l-5.5-0.2l-8.9-0.3l-1,11.4c-2-4.9-4.6-8.5-7.6-11.1c-3.1-2.5-6.4-3.8-10-3.8
		c-5.4,0-10.6,2.3-15.6,6.6c-4.9,4.5-8.9,10.7-11.9,18.7c-3,8-4.4,16.4-4.4,25.2c0,11.5,2.3,21.7,6.9,30.4
		c4.6,8.7,10.8,13.1,18.6,13.1c3.4,0,6.4-0.8,9.1-2.6c2.7-1.8,5.7-4.9,8.8-9.2l-0.7,8.6l13.1,0.4l-4-0.6c0.7-8.3,1.4-16.7,2.1-24.8
		c-0.2-0.2-0.4-0.5-0.6-0.8c-0.6-1.1-0.8-2.5-0.6-4.4c0.1-1.2,0.4-2.4,1-3.3l1,0.7c0.1-1,0.1-2.1,0.3-3c-0.1-0.1-0.2-0.3-0.3-0.5
		c-0.6-1.1-0.8-2.5-0.6-4.3c0.1-1,0.4-2,0.8-2.7c0.3-0.4,0.6-0.8,0.9-1.1c0.1-1.2,0.2-2.5,0.4-3.7l-1-0.2l0.3-2.3l1-0.2
		c0-0.1,0-0.2,0-0.3c-0.3-0.4-0.5-0.8-0.7-1.5s-0.1-1.2-0.1-2.1c0.1-1.5,0.6-2.5,1.3-3c0-0.2,0.1-0.4,0.1-0.6
		c-0.2-0.3-0.4-0.7-0.5-1.2c-0.1-0.6-0.1-1.4-0.1-2.1c0.1-1.2,0.5-2.2,1-2.7c0.1,0,0.1-0.1,0.1-0.1c0.5-0.4,1.3-0.5,2.2-0.3l3.2,0.7
		l2,0.4l-0.4,3l-1.9-0.4l-0.4,3.9l1.8,0.4l-0.4,3l-1.8-0.4l-0.4,3.9l1.7,0.4l-0.4,3l-1.6-0.3l-0.3,3.2c0.2,0.2,0.4,0.5,0.5,0.7
		c0.6,1.1,0.8,2.5,0.7,4.3c-0.1,1-0.4,2-0.8,2.7c-0.3,0.5-0.7,0.9-1.2,1.2l-0.2,2.9l0.8,0.2c0.1,0.5,0.2,1,0.3,1.7
		c0,0.5,0,1.1-0.1,2c-0.2,2-0.8,3.2-1.7,3.8l-0.7,7c0.1,0,0.1,0,0.1,0c0.5,0.1,0.9,0.7,0.8,1.5c-0.1,0.7-0.5,1.1-1,1
		c-0.1,0-0.1,0-0.1,0l-1.4,15.3l6.6,0.2c1.6-20.3,3.5-40.6,5-57c1.2-13,2.1-23.4,2.7-30.2L806.3,233z M786.3,288.6
		c-1.8,5.1-4,8.9-6.6,11.3c-2.7,2.4-5.8,3.6-9.3,3.6c-4.3,0-7.7-2.1-10.5-6.4c-2.7-4.3-4.1-9.9-4.1-16.9c0-9,1.8-16.5,5.4-22.2
		c3.6-5.7,8-8.6,13.1-8.6c4.4,0,8,2.2,10.7,6.4c2.7,4.4,4.1,10,4.1,17.1C789,278.2,788.1,283.4,786.3,288.6z"/>
	<path id="XMLID_86_" class="st0" d="M804,258.8l-0.4,3.9l1.8,0.4l-0.4,3l-1.8-0.4l-0.4,3.9l1.7,0.4l-0.4,3l-1.6-0.3l-0.3,3.2
		c0.2,0.2,0.4,0.5,0.5,0.7c0.6,1.1,0.8,2.5,0.7,4.3c-0.1,1-0.4,2-0.8,2.7c-0.3,0.5-0.7,0.9-1.2,1.2l-0.2,2.9l0.8,0.2
		c0.1,0.5,0.2,1,0.3,1.7c0,0.5,0,1.1-0.1,2c-0.2,2-0.8,3.2-1.7,3.8l-0.7,7c0.1,0,0.1,0,0.1,0c0.5,0.1,0.9,0.7,0.8,1.5
		c-0.1,0.7-0.5,1.1-1,1c-0.1,0-0.1,0-0.1,0l-1.4,15.3l6.6,0.2c0,0.3-0.1,0.6-0.1,0.9l-6.6-1l-1.2-0.2l-4-0.6
		c0.7-8.3,1.4-16.7,2.1-24.8c0.2-2.6,0.4-5.2,0.7-7.7c0.1-1,0.1-2.1,0.3-3c0.3-2.9,0.5-5.8,0.8-8.6c0.1-1.2,0.2-2.5,0.4-3.7
		c0.1-0.9,0.1-1.9,0.2-2.7c0-0.1,0-0.2,0-0.3c0.2-2.2,0.4-4.4,0.6-6.4c0-0.2,0.1-0.4,0.1-0.6c0-0.1,0-0.1,0-0.2
		c0.2-2,0.4-3.9,0.5-5.9c0.5-0.4,1.3-0.5,2.2-0.3l3.2,0.7l2,0.4l-0.4,3L804,258.8z"/>
	<path id="XMLID_22_" class="st0" d="M812.7,233c0,0.1,0,0.1,0,0.2l-6.4-0.2l-5.5-0.2c0-0.3,0.1-0.7,0.1-1c0-0.1,0-0.3,0-0.4
		c0-0.1,0-0.1,0-0.1l1,0.1l3.7,0.6h0.1l0.7,0.1L812.7,233z"/>
</g>
<g id="XMLID_13_">
	<path id="XMLID_11_" class="st0" d="M800.1,304.6c-0.1,0-0.1,0-0.1,0c-0.4,0-0.8,0.4-0.9,1c-0.1,0.6,0.2,1.2,0.7,1.4
		c0,0,0.1,0,0.1,0c0.5,0.1,1-0.3,1-1C801,305.3,800.6,304.7,800.1,304.6z"/>
	<path id="XMLID_14_" class="st0" d="M802.1,290.3l-0.8-0.2l-1-0.2c0.1,0.5,0.3,1.1,0.4,1.7c0.1,0.5,0.1,1,0,1.7
		c-0.1,1.6-1,2.2-2.6,1.9c-1.6-0.4-2.3-1.4-2.1-2.9c0.1-0.4,0.1-0.8,0.3-1.2c0.1-0.4,0.3-0.8,0.5-1.2l-0.7-0.5l-1-0.7
		c-0.4,0.9-0.8,2.1-1,3.3c-0.2,1.8,0,3.2,0.6,4.4c0.1,0.3,0.4,0.5,0.6,0.8c0.6,0.6,1.4,1.1,2.4,1.4c1.3,0.3,2.2,0.1,3-0.4
		c0.9-0.6,1.5-2,1.7-3.8c0.1-0.7,0.1-1.5,0.1-2C802.3,291.3,802.3,290.8,802.1,290.3z"/>
	<path id="XMLID_16_" class="st0" d="M802.9,278.9c-0.1-0.3-0.3-0.5-0.5-0.7c-0.6-0.7-1.4-1.1-2.4-1.4c-0.8-0.2-1.5-0.1-2.3,0.2
		c-0.3,0.1-0.5,0.3-0.7,0.4c-0.4,0.3-0.7,0.6-0.9,1.1c-0.4,0.7-0.7,1.7-0.8,2.7c-0.2,1.8,0,3.1,0.6,4.3c0.1,0.2,0.2,0.3,0.3,0.5
		c0.6,0.8,1.5,1.4,2.6,1.7c0.8,0.2,1.5,0.1,2.3-0.2c0.1-0.1,0.4-0.2,0.5-0.3c0.4-0.3,0.8-0.7,1.2-1.2c0.4-0.7,0.7-1.7,0.8-2.7
		C803.7,281.4,803.5,280.1,802.9,278.9z M800.9,284.3c-0.4,0.3-1,0.3-1.8,0.1c-0.8-0.2-1.4-0.5-1.7-0.9c-0.4-0.4-0.5-1-0.4-1.9
		c0.1-0.8,0.4-1.4,0.8-1.7c0.4-0.3,1-0.3,1.8-0.1c0.8,0.2,1.4,0.5,1.7,0.9c0.4,0.4,0.5,1,0.4,1.9
		C801.7,283.6,801.4,284.1,800.9,284.3z"/>
	<path id="XMLID_19_" class="st0" d="M799.9,260.3c0.3-0.2,0.7-0.2,1.3-0.1l2.7,0.6l1.9,0.4l0.4-3l-2-0.4l-3.2-0.7
		c-1-0.2-1.6-0.1-2.2,0.3c-0.1,0-0.1,0.1-0.1,0.1c-0.5,0.5-0.9,1.5-1,2.7c-0.1,0.7-0.1,1.5,0.1,2.1c0.1,0.5,0.3,0.9,0.5,1.2
		c0.1,0.1,0.1,0.2,0.1,0.2v0.3c-0.1,0-0.1,0.1-0.2,0.1c-0.7,0.5-1.2,1.5-1.3,3c-0.1,0.7-0.1,1.5,0.1,2.1c0.1,0.5,0.4,1,0.7,1.5
		l0.1,0.1v0.2h-0.1l-1,0.2l-0.3,2.3l1,0.2l5.3,1.2l1.6,0.3l0.4-3l-1.7-0.4l-2.1-0.5c-1-0.2-1.6-0.5-2-0.9c-0.4-0.4-0.5-1-0.4-1.9
		c0.1-0.6,0.3-0.9,0.6-1.1s0.7-0.2,1.3-0.1l2.9,0.6l1.8,0.4l0.4-3l-1.8-0.4l-2.1-0.5c-0.8-0.2-1.4-0.5-1.8-0.9s-0.4-1-0.4-1.8
		C799.4,261,799.5,260.5,799.9,260.3z"/>
</g>
<g id="XMLID_1_">
	<g id="XMLID_61_">
		<path id="XMLID_66_" class="st0" d="M797.8,318.3c2.4,0,2.4-5.2,0-5.2S795.4,318.3,797.8,318.3L797.8,318.3z"/>
	</g>
</g>
</svg>
